# xmcd CD database file
#
# Track frame offsets:
#	150
#	18405
#	32706
#	55020
#	70063
#	86850
#	106672
#
# Disc length: 1697 seconds
#
# Revision: 0
# Processed by: cddbd v1.5.2PL0 Copyright (c) Steve Scherf et al.
# Submitted via: CDex 1.70beta2
#
DISCID=4f069f07
DTITLE=Cynthia Lin - Doppelganger
DYEAR=2007
DGENRE=Jazz
TTITLE0=Skipping in NYC
TTITLE1=Doppelganger
TTITLE2=Water Torture
TTITLE3=Home
TTITLE4=Perfect
TTITLE5=Time After Time
TTITLE6=End Of The Line
EXTD=YEAR: 2007
EXTT0=
EXTT1=
EXTT2=
EXTT3=
EXTT4=
EXTT5=
EXTT6=
PLAYORDER=
